:SAMPLES-PER-SECOND 30
:FULLY-SPECIFIED
:DEGREES
102
root  -40.935 37.67 21.0815 26.2937 -76.3216 0.065398
RightUpLeg  -62.9159 -21.2672 19.1734
RightLeg  33.6065 4.43058 2.91354
RightFoot  0.481309 1.03055 -9.88404
RightToes  0.00048216 0.542163 -0.142577
Spine  63.2678 -3.87497 10.033
Spine1  13.8344 4.15265 -3.74201
HEad  -34.6599 -10.5216 -0.497767
LeftShoulder1  6.08576 -27.4449 -12.4257
LeftArm  -53.6753 -55.9297 7.2083
LeftForeArm  14.7104 -5.24163 0.169848
LeftHand  -0.25398 0.0180481 5.50724
RightShoulder  3.35395 15.7588 10.1288
RightArm  -52.9794 58.7848 -14.5372
RightForeArm  -6.11529 -1.97803 4.37028
RightHand  -0.618396 2.8275 -8.9851
LeftUpLeg  -69.2398 31.6547 -31.0868
LeftLeg  21.4406 -8.03085 -3.12539
LeftFoot  7.21624 -0.718287 4.19901
LeftToes  1.06244e-005 4.65856e-005 -8.18505e-006
103
root  -41.3248 37.4207 21.5537 29.3263 -76.5586 -0.0429599
RightUpLeg  -66.8503 -20.6618 19.6811
RightLeg  36.1141 4.18832 3.01507
RightFoot  -0.40468 0.900624 -9.40357
RightToes  0.00048216 0.542163 -0.142577
Spine  64.6965 -3.6829 9.8292
Spine1  12.294 4.18036 -3.6578
HEad  -35.8703 -10.8587 0.112163
LeftShoulder1  5.69589 -28.1027 -10.609
LeftArm  -58.9955 -56.313 13.5432
LeftForeArm  12.3886 -4.05811 0.85958
LeftHand  -0.25398 0.0180481 5.50724
RightShoulder  3.21286 15.9787 9.10267
RightArm  -57.7839 58.194 -20.6174
RightForeArm  -7.82561 -2.35952 4.04489
RightHand  -0.494293 2.77736 -7.28714
LeftUpLeg  -73.1122 29.6524 -32.5317
LeftLeg  24.7092 -6.69042 -3.01386
LeftFoot  6.76259 -1.26743 7.69749
LeftToes  1.06244e-005 4.65856e-005 -8.18505e-006
104
root  -41.7119 37.2177 22.046 33.1044 -76.846 -1.58386
RightUpLeg  -69.8157 -20.3041 20.4083
RightLeg  38.1239 3.94519 3.04297
RightFoot  -1.14966 0.792412 -8.94893
RightToes  0.00048216 0.542163 -0.142577
Spine  66.696 -3.55648 9.76916
Spine1  10.6879 4.37305 -3.90648
HEad  -36.6214 -11.0813 0.926571
LeftShoulder1  5.28557 -28.8072 -8.76048
LeftArm  -64.0389 -56.1702 19.8037
LeftForeArm  9.74739 -2.82343 1.52713
LeftHand  -0.25398 0.0180481 5.50724
RightShoulder  3.12083 16.1099 8.45566
RightArm  -60.8245 57.0255 -25.3101
RightForeArm  -9.84172 -2.24629 3.95158
RightHand  -0.423498 3.05391 -6.11203
LeftUpLeg  -76.1076 28.2171 -32.9089
LeftLeg  27.8403 -5.65784 -2.90007
LeftFoot  4.81079 -1.27102 8.72751
LeftToes  1.06244e-005 4.65856e-005 -8.18505e-006
105
root  -42.0622 37.0475 22.5638 38.4963 -77.3704 -5.16669
RightUpLeg  -72.0435 -19.8026 21.4189
RightLeg  39.4928 3.62708 2.91873
RightFoot  -1.41653 0.759078 -8.8271
RightToes  0.00048216 0.542163 -0.142577
Spine  68.703 -3.36042 9.65931
Spine1  9.33707 4.85079 -4.45105
HEad  -36.8628 -11.1498 1.26702
LeftShoulder1  5.11376 -29.6237 -7.72394
LeftArm  -68.3058 -55.3854 25.5543
LeftForeArm  7.4172 -2.09592 2.07092
LeftHand  -0.25398 0.0180481 5.50724
RightShoulder  3.06336 16.2256 8.02492
RightArm  -62.4537 55.764 -28.4443
RightForeArm  -13.0034 -1.75294 4.06821
RightHand  -0.469287 4.06694 -6.08855
LeftUpLeg  -79.0994 27.8706 -34.0585
LeftLeg  30.423 -5.56367 -3.1766
LeftFoot  3.16265 -1.29464 10.0025
LeftToes  1.06244e-005 4.65856e-005 -8.18505e-006
106
root  -42.3602 36.8797 23.0854 44.2782 -77.9615 -9.13752
RightUpLeg  -74.2954 -19.2126 22.4532
RightLeg  40.6764 3.23054 2.6831
RightFoot  -1.33869 0.748219 -8.6296
RightToes  0.00048216 0.542163 -0.142577
Spine  70.146 -3.02506 9.27467
Spine1  8.24613 5.18075 -4.73006
HEad  -36.8807 -10.8835 0.920744
LeftShoulder1  5.00785 -30.2511 -7.04783
LeftArm  -71.214 -53.8242 29.5588
LeftForeArm  6.0533 -2.57603 2.57552
LeftHand  -0.25398 0.0180481 5.50724
RightShoulder  2.91724 16.0538 7.34046
RightArm  -63.833 55.2333 -29.9747
RightForeArm  -17.3302 -1.00536 4.18367
RightHand  -0.668392 5.63242 -7.41154
LeftUpLeg  -82.2994 27.7844 -36.0704
LeftLeg  32.7076 -5.44635 -3.40312
LeftFoot  1.72911 -1.3754 11.8658
LeftToes  1.06244e-005 4.65856e-005 -8.18505e-006
107
root  -42.6212 36.7106 23.5818 48.7255 -78.3522 -11.9923
RightUpLeg  -76.5377 -18.988 23.302
RightLeg  42.0501 2.91495 2.51716
RightFoot  -1.36992 0.682054 -7.90229
RightToes  0.00048216 0.542163 -0.142577
Spine  71.2489 -2.68705 8.69802
Spine1  7.33844 5.07214 -4.43338
HEad  -36.7713 -10.3053 0.277222
LeftShoulder1  4.65407 -30.4319 -5.79847
LeftArm  -72.5383 -51.7806 31.2506
LeftForeArm  4.79121 -3.6914 3.10762
LeftHand  -0.25398 0.0180481 5.50724
RightShoulder  2.66408 15.5849 6.26777
RightArm  -65.0406 55.5005 -29.9707
RightForeArm  -22.3472 0.177266 4.31309
RightHand  -1.06183 7.50123 -9.95812
LeftUpLeg  -84.8955 27.3164 -37.4858
LeftLeg  34.9555 -4.91426 -3.32195
LeftFoot  0.107066 -1.27597 12.6521
LeftToes  1.06244e-005 4.65856e-005 -8.18505e-006
108
root  -42.8503 36.5399 24.0464 51.8905 -78.5448 -14.1247
RightUpLeg  -78.3311 -19.2463 23.9857
RightLeg  43.5451 2.89389 2.63711
RightFoot  -1.63296 0.580388 -6.94954
RightToes  0.00048216 0.542163 -0.142577
Spine  72.3233 -2.48085 8.21298
Spine1  6.64606 4.81266 -3.95162
HEad  -36.465 -9.7742 -0.162531
LeftShoulder1  4.19149 -30.3902 -4.30065
LeftArm  -72.9206 -49.9543 31.51
LeftForeArm  2.71907 -4.32709 3.62874
LeftHand  -0.25398 0.0180481 5.50724
RightShoulder  2.43482 15.1138 5.28448
RightArm  -65.4452 55.9447 -28.9181
RightForeArm  -26.6058 1.98765 4.57878
RightHand  -1.64976 9.70752 -13.096
LeftUpLeg  -86.5766 26.7325 -37.9719
LeftLeg  37.1409 -4.27886 -3.10206
LeftFoot  -1.3528 -1.11323 12.7769
LeftToes  1.06244e-005 4.65856e-005 -8.18505e-006
109
root  -43.0291 36.3541 24.4884 54.8777 -78.8109 -16.335
RightUpLeg  -79.8233 -19.5172 24.4265
RightLeg  44.9373 3.18642 3.0852
RightFoot  -1.8724 0.507378 -6.2696
RightToes  0.00048216 0.542163 -0.142577
Spine  73.0593 -2.33698 7.90967
Spine1  6.25801 4.76918 -3.70591
HEad  -36.1556 -9.573 -0.319832
LeftShoulder1  3.9941 -30.4668 -3.61966
LeftArm  -73.3631 -48.8788 31.4367
LeftForeArm  0.708925 -4.71245 4.05085
LeftHand  -0.25398 0.0180481 5.50724
RightShoulder  2.28253 14.5747 4.77708
RightArm  -65.7507 56.2999 -27.5457
RightForeArm  -28.3757 4.34847 4.7695
RightHand  -2.26871 11.8781 -15.6662
LeftUpLeg  -88.0069 26.2791 -38.6028
LeftLeg  39.0655 -3.66429 -2.80443
LeftFoot  -2.6178 -1.02005 13.524
LeftToes  1.06244e-005 4.65856e-005 -8.18505e-006
